<?xml version="1.0" encoding="UTF-8" standalone="no"?>
<svg
   height="16"
   viewBox="0 0 16 16"
   width="16"
   version="1.1"
   id="svg44"
   sodipodi:docname="icon_node.svg"
   inkscape:version="1.2.1 (9c6d41e410, 2022-07-14)"
   xmlns:inkscape="http://www.inkscape.org/namespaces/inkscape"
   xmlns:sodipodi="http://sodipodi.sourceforge.net/DTD/sodipodi-0.dtd"
   xmlns="http://www.w3.org/2000/svg"
   xmlns:svg="http://www.w3.org/2000/svg">
  <defs
     id="defs48">
    <marker
       style="overflow:visible"
       id="Arrow1"
       refX="0"
       refY="0"
       orient="auto-start-reverse"
       inkscape:stockid="Arrow1"
       markerWidth="4.0606599"
       markerHeight="6.7071066"
       viewBox="0 0 4.0606602 6.7071068"
       inkscape:isstock="true"
       inkscape:collect="always"
       preserveAspectRatio="xMidYMid">
      <path
         style="fill:none;stroke:context-stroke;stroke-width:1;stroke-linecap:butt"
         d="M 3,-3 0,0 3,3"
         id="path5057"
         transform="rotate(180,0.125,0)"
         sodipodi:nodetypes="ccc" />
    </marker>
    <inkscape:path-effect
       effect="powerstroke"
       id="path-effect1785"
       is_visible="true"
       lpeversion="1"
       offset_points="1,2.1550964"
       not_jump="false"
       sort_points="true"
       interpolator_type="CubicBezierJohan"
       interpolator_beta="0.2"
       start_linecap_type="zerowidth"
       linejoin_type="extrp_arc"
       miter_limit="4"
       scale_width="1"
       end_linecap_type="zerowidth" />
    <inkscape:path-effect
       effect="powerstroke"
       id="path-effect1527"
       is_visible="true"
       lpeversion="1"
       offset_points="0,2.5638648"
       not_jump="false"
       sort_points="true"
       interpolator_type="CubicBezierJohan"
       interpolator_beta="0.2"
       start_linecap_type="zerowidth"
       linejoin_type="extrp_arc"
       miter_limit="4"
       scale_width="1"
       end_linecap_type="zerowidth" />
  </defs>
  <sodipodi:namedview
     id="namedview46"
     pagecolor="#505050"
     bordercolor="#eeeeee"
     borderopacity="1"
     inkscape:showpageshadow="0"
     inkscape:pageopacity="0"
     inkscape:pagecheckerboard="0"
     inkscape:deskcolor="#505050"
     showgrid="false"
     showguides="false"
     inkscape:zoom="38.75829"
     inkscape:cx="8.2949995"
     inkscape:cy="7.0049529"
     inkscape:window-width="1870"
     inkscape:window-height="980"
     inkscape:window-x="20"
     inkscape:window-y="70"
     inkscape:window-maximized="1"
     inkscape:current-layer="svg44" />
  <path
     d="M 8.3717282,0.66783949 A 2.7475965,2.7475965 0 0 0 5.6241317,3.4154364 2.7475965,2.7475965 0 0 0 8.3717282,6.1630324 2.7475965,2.7475965 0 0 0 11.119325,3.4154364 2.7475965,2.7475965 0 0 0 8.3717282,0.66783949 Z m 0,0.91586551 A 1.831731,1.831731 0 0 1 10.203459,3.4154364 1.831731,1.831731 0 0 1 8.3717282,5.2471674 1.831731,1.831731 0 0 1 6.5399972,3.4154364 1.831731,1.831731 0 0 1 8.3717282,1.583705 Z"
     fill="#e0e0e0"
     id="path42"
     style="stroke-width:0.457933" />
  <path
     d="M 3.384073,9.7382992 A 2.7475965,2.7475965 0 0 0 0.63647652,12.485896 2.7475965,2.7475965 0 0 0 3.384073,15.233492 2.7475965,2.7475965 0 0 0 6.1316698,12.485896 2.7475965,2.7475965 0 0 0 3.384073,9.7382992 Z m 0,0.9158658 A 1.831731,1.831731 0 0 1 5.2158038,12.485896 1.831731,1.831731 0 0 1 3.384073,14.317627 1.831731,1.831731 0 0 1 1.552342,12.485896 1.831731,1.831731 0 0 1 3.384073,10.654165 Z"
     fill="#e0e0e0"
     id="path208"
     style="stroke-width:0.457933" />
  <path
     d="m 12.751734,9.84715 a 2.7475965,2.7475965 0 0 0 -2.747597,2.747597 2.7475965,2.7475965 0 0 0 2.747597,2.747596 2.7475965,2.7475965 0 0 0 2.747597,-2.747596 2.7475965,2.7475965 0 0 0 -2.747597,-2.747597 z m 0,0.915866 a 1.831731,1.831731 0 0 1 1.831731,1.831731 1.831731,1.831731 0 0 1 -1.831731,1.831731 1.831731,1.831731 0 0 1 -1.831731,-1.831731 1.831731,1.831731 0 0 1 1.831731,-1.831731 z"
     fill="#e0e0e0"
     id="path210"
     style="stroke-width:0.457933" />
  <path
     style="fill:#e0e0e0;fill-opacity:0.886275;stroke:#e0e0e0;stroke-width:0.5;stroke-linecap:square;stroke-linejoin:miter;stroke-dasharray:none;stroke-opacity:1;marker-start:url(#Arrow1);paint-order:fill markers stroke"
     d="m 4.8163992,9.6770742 c 0,0 2.3429201,-4.3395792 2.3075274,-4.2487705"
     id="path2464" />
  <path
     style="fill:#e0e0e0;fill-opacity:0.886275;stroke:#e0e0e0;stroke-width:0.5;stroke-linecap:square;stroke-linejoin:miter;stroke-dasharray:none;stroke-opacity:1;marker-start:url(#Arrow1);paint-order:fill markers stroke"
     d="m 9.9735386,6.1426138 c 0,0 2.2230234,4.1526662 2.1894414,4.0657692"
     id="path5241" />
  <path
     style="fill:none;stroke:#e0e0e0;stroke-width:0.5;stroke-linecap:butt;stroke-linejoin:miter;stroke-dasharray:none;stroke-opacity:1;marker-end:url(#Arrow1)"
     d="M 5.3748908,12.616264 H 9.6032651"
     id="path5277" />
</svg>
